# xmcd CD database file
#
# Track frame offsets:
#	150
#	12890
#	27110
#	40491
#	54079
#	68885
#	80862
#	94913
#	107744
#	120687
#	136306
#	148985
#	162798
#	178143
#	190541
#	202899
#	212519
#	221471
#	234488
#	247967
#	260785
#	274522
#	284461
#	297763
#	310401
#	321873
#	334578
#
# Disc length: 4603 seconds
#
# Revision: 1
# Processed by: cddbd v1.5PL3 Copyright (c) Steve Scherf et al.
# Submitted via: CDex 1.51
#
DISCID=9111f91b
DTITLE=Howard McGhee - Complete Savoy and Dial Masters
DYEAR=1999
DGENRE=Jazz
TTITLE0=Trumpet At TEmpo
TTITLE1=Thermodynamics
TTITLE2=Dilated Pupils
TTITLE3=Midnight At Mintons
TTITLE4=Up In Dodo's Room
TTITLE5=High Wind In Hollywood
TTITLE6=Dorothy
TTITLE7=Night Mist
TTITLE8=Coolie-Rini
TTITLE9=Night Music
TTITLE10=Turnip Blood
TTITLE11=Surrender
TTITLE12=Sleepwalker Boogie
TTITLE13=Stop Time Blues
TTITLE14=You
TTITLE15=Merry Lee
TTITLE16=Short Life!
TTITLE17=The Talk Of The Town
TTITLE18=Bass C Jam
TTITLE19=Down Home
TTITLE20=Sweet And Lovely
TTITLE21=Fiesta
TTITLE22=I'm In The Mood For Love
TTITLE23=Belle From Bunnycock
TTITLE24=Flip Lip
TTITLE25=The Man I Love
TTITLE26=The Last Word
EXTD=YEAR: 1999
EXTT0=
EXTT1=
EXTT2=
EXTT3=
EXTT4=
EXTT5=
EXTT6=
EXTT7=
EXTT8=
EXTT9=
EXTT10=
EXTT11=
EXTT12=
EXTT13=
EXTT14=
EXTT15=
EXTT16=
EXTT17=
EXTT18=
EXTT19=
EXTT20=
EXTT21=
EXTT22=
EXTT23=
EXTT24=
EXTT25=
EXTT26=
PLAYORDER=
